<?xml version="1.0" encoding="UTF-8" standalone="no"?>
<!-- Created with Inkscape (http://www.inkscape.org/) -->

<svg
   xmlns:dc="http://purl.org/dc/elements/1.1/"
   xmlns:cc="http://creativecommons.org/ns#"
   xmlns:rdf="http://www.w3.org/1999/02/22-rdf-syntax-ns#"
   xmlns:svg="http://www.w3.org/2000/svg"
   xmlns="http://www.w3.org/2000/svg"
   xmlns:sodipodi="http://sodipodi.sourceforge.net/DTD/sodipodi-0.dtd"
   xmlns:inkscape="http://www.inkscape.org/namespaces/inkscape"
   width="106.58766mm"
   height="135.46719mm"
   viewBox="0 0 106.58766 135.46719"
   version="1.1"
   id="svg4537"
   inkscape:version="0.92.3 (2405546, 2018-03-11)"
   sodipodi:docname="highlighted-flood.svg">
  <defs
     id="defs4531" />
  <sodipodi:namedview
     id="base"
     pagecolor="#ffffff"
     bordercolor="#666666"
     borderopacity="1.0"
     inkscape:pageopacity="0.0"
     inkscape:pageshadow="2"
     inkscape:zoom="1.4"
     inkscape:cx="328.88043"
     inkscape:cy="192.36429"
     inkscape:document-units="mm"
     inkscape:current-layer="layer1"
     showgrid="false"
     inkscape:pagecheckerboard="true"
     fit-margin-top="0"
     fit-margin-left="0"
     fit-margin-right="0"
     fit-margin-bottom="0"
     inkscape:window-width="1920"
     inkscape:window-height="1046"
     inkscape:window-x="-11"
     inkscape:window-y="-11"
     inkscape:window-maximized="1" />
  <metadata
     id="metadata4534">
    <rdf:RDF>
      <cc:Work
         rdf:about="">
        <dc:format>image/svg+xml</dc:format>
        <dc:type
           rdf:resource="http://purl.org/dc/dcmitype/StillImage" />
        <dc:title></dc:title>
      </cc:Work>
    </rdf:RDF>
  </metadata>
  <g
     inkscape:label="Layer 1"
     inkscape:groupmode="layer"
     id="layer1"
     transform="translate(-39.688318,-78.831879)">
    <path
       inkscape:connector-curvature="0"
       id="path10"
       d="m 143.21052,132.12505 c 0,40.21984 -45.404622,77.4692 -45.404622,77.4692 -2.65298,2.17647 -6.99479,2.17647 -9.64803,0 0,0 -45.40462,-37.24936 -45.40462,-77.4692 0,-27.74051 22.48826,-50.228502 50.22876,-50.228502 27.740512,0 50.228512,22.488262 50.228512,50.228502 z"
       style="fill:#4062bb;stroke-width:0.26458332;fill-opacity:1" />
    <path
       inkscape:connector-curvature="0"
       id="path12"
       d="m 92.982008,157.39567 c -13.93428,0 -25.27035,-11.33634 -25.27035,-25.27036 0,-13.93401 11.33634,-25.27035 25.27035,-25.27035 13.934022,0 25.270362,11.33634 25.270362,25.27035 0,13.93402 -11.3366,25.27036 -25.270362,25.27036 z"
       style="fill:#ffe1d6;stroke-width:0.26458332" />
    <g
       transform="matrix(0.26458333,0,0,0.26458333,25.248418,78.831879)"
       id="g18">
      <path
         inkscape:connector-curvature="0"
         id="path14"
         d="M 256.001,0 C 144.935,0 54.576,90.359 54.576,201.424 c 0,36.373 9.386,74.987 27.896,114.767 14.616,31.409 34.94,63.649 60.411,95.826 43.178,54.547 85.749,89.691 87.54,91.16 7.171,5.883 16.375,8.825 25.579,8.825 9.204,0 18.407,-2.942 25.579,-8.825 1.791,-1.47 44.361,-36.613 87.539,-91.16 25.47,-32.176 45.795,-64.416 60.411,-95.826 18.51,-39.78 27.896,-78.392 27.896,-114.767 C 457.424,90.359 367.065,0 256.001,0 Z m 95.246,397.268 c -41.647,52.697 -83.942,87.653 -84.361,87.997 -5.799,4.758 -15.972,4.757 -21.768,0.002 -0.422,-0.346 -42.716,-35.302 -84.363,-87.999 C 122.886,349.35 77.743,276.477 77.743,201.424 77.742,103.132 157.708,23.166 256,23.166 c 98.292,0 178.258,79.966 178.258,178.258 0,75.052 -45.142,147.926 -83.011,195.844 z"
         style="fill:#11113f" />
      <path
         inkscape:connector-curvature="0"
         id="path16"
         d="m 256.001,94.331 c -59.051,0 -107.093,48.042 -107.093,107.094 0,59.051 48.042,107.093 107.093,107.093 59.051,0 107.093,-48.042 107.093,-107.093 C 363.093,142.373 315.051,94.331 256.001,94.331 Z m 0,191.02 c -46.278,0 -83.927,-37.649 -83.927,-83.927 0,-46.278 37.649,-83.928 83.927,-83.928 46.278,0 83.927,37.65 83.927,83.928 0,46.278 -37.651,83.927 -83.927,83.927 z"
         style="fill:#11113f" />
    </g>
    <g
       transform="matrix(-0.08868943,0,0,0.08868943,-76.043722,138.42814)"
       id="g124">
      <g
         id="g1133">
        <circle
           id="circle57"
           r="254"
           cy="-69.837463"
           cx="-1904.9164"
           style="fill:#121149;fill-opacity:1" />
        <path
           inkscape:connector-curvature="0"
           id="path59"
           d="m -1906.9164,90.16254 h 4 c 62.8,0 115.2,-50.4 114,-113.2 0,-8 -1.2,-15.6 -2.8,-22.8 -7.2,-31.6 -43.2,-68 -69.2,-107.2 -27.2,-37.6 -44,-77.6 -44,-76.4 -0.4,-0.8 -17.2,39.2 -44,76.4 -25.6,39.2 -62,76 -69.2,106.8 -2,7.2 -2.8,14.8 -2.8,22.8 -1.2,62.8 51.2,113.6 114,113.6 z"
           style="fill:#54c0eb" />
        <path
           inkscape:connector-curvature="0"
           style="fill:#84dbff"
           d="m -1981.7164,29.76254 c 6,-0.4 9.6,-6 7.2,-10.8 -3.2,-7.2 -6,-14.8 -7.2,-22.8 -1.6,-8 -2,-15.6 -1.6,-23.2 1.2,-32 32,-75.2 51.6,-118.4 2,-3.6 3.6,-7.6 5.2,-11.2 -0.8,1.2 -1.6,2.4 -2.4,3.2 -26.4,40.4 -64,78.8 -70.8,110 -1.6,7.2 -2.4,15.2 -2.4,23.2 0.4,16.8 4.8,32 12.4,46 2,2.8 4.8,4.4 8,4 z"
           id="path61" />
        <ellipse
           transform="rotate(-92.407173)"
           style="fill:#84dbff;stroke-width:0.99998242"
           cx="40.640171"
           cy="-1970.5557"
           rx="8.3998518"
           ry="9.1998377"
           id="ellipse63" />
      </g>
      <g
         id="g67" />
      <g
         id="g69" />
      <g
         id="g71" />
      <g
         id="g73" />
      <g
         id="g75" />
      <g
         id="g77" />
      <g
         id="g79" />
      <g
         id="g81" />
      <g
         id="g83" />
      <g
         id="g85" />
      <g
         id="g87" />
      <g
         id="g89" />
      <g
         id="g91" />
      <g
         id="g93" />
      <g
         id="g95" />
    </g>
  </g>
</svg>
