<?xml version="1.0" encoding="UTF-8" standalone="no"?>
<svg
   xmlns:dc="http://purl.org/dc/elements/1.1/"
   xmlns:cc="http://creativecommons.org/ns#"
   xmlns:rdf="http://www.w3.org/1999/02/22-rdf-syntax-ns#"
   xmlns:svg="http://www.w3.org/2000/svg"
   xmlns="http://www.w3.org/2000/svg"
   xmlns:sodipodi="http://sodipodi.sourceforge.net/DTD/sodipodi-0.dtd"
   xmlns:inkscape="http://www.inkscape.org/namespaces/inkscape"
   height="512.00201"
   width="402.85101"
   xml:space="preserve"
   viewBox="0 0 402.851 512.002"
   y="0px"
   x="0px"
   id="Layer_1"
   version="1.1"
   sodipodi:docname="highlighted-help.svg"
   inkscape:version="0.92.3 (2405546, 2018-03-11)"><sodipodi:namedview
     pagecolor="#ffffff"
     bordercolor="#666666"
     borderopacity="1"
     objecttolerance="10"
     gridtolerance="10"
     guidetolerance="10"
     inkscape:pageopacity="0"
     inkscape:pageshadow="2"
     inkscape:window-width="1920"
     inkscape:window-height="1046"
     id="namedview997"
     showgrid="false"
     inkscape:zoom="0.46093569"
     inkscape:cx="-295.39001"
     inkscape:cy="256.00101"
     inkscape:window-x="-11"
     inkscape:window-y="-11"
     inkscape:window-maximized="1"
     inkscape:current-layer="Layer_1" /><metadata
     id="metadata3725"><rdf:RDF><cc:Work
         rdf:about=""><dc:format>image/svg+xml</dc:format><dc:type
           rdf:resource="http://purl.org/dc/dcmitype/StillImage" /><dc:title></dc:title></cc:Work></rdf:RDF></metadata><defs
     id="defs3723" /><g
     transform="translate(-58.797454,-1.2061296)"
     id="g3690" /><g
     transform="translate(-58.797454,-1.2061296)"
     id="g3692" /><g
     transform="translate(-58.797454,-1.2061296)"
     id="g3694" /><g
     transform="translate(-58.797454,-1.2061296)"
     id="g3696" /><g
     transform="translate(-58.797454,-1.2061296)"
     id="g3698" /><g
     transform="translate(-58.797454,-1.2061296)"
     id="g3700" /><g
     transform="translate(-58.797454,-1.2061296)"
     id="g3702" /><g
     transform="translate(-58.797454,-1.2061296)"
     id="g3704" /><g
     transform="translate(-58.797454,-1.2061296)"
     id="g3706" /><g
     transform="translate(-58.797454,-1.2061296)"
     id="g3708" /><g
     transform="translate(-58.797454,-1.2061296)"
     id="g3710" /><g
     transform="translate(-58.797454,-1.2061296)"
     id="g3712" /><g
     transform="translate(-58.797454,-1.2061296)"
     id="g3714" /><g
     transform="translate(-58.797454,-1.2061296)"
     id="g3716" /><g
     transform="translate(-58.797454,-1.2061296)"
     id="g3718" /><path
     id="path3680"
     d="m 391.265,205.64445 c 0,152.012 -171.608,292.797 -171.608,292.797 -10.027,8.226 -26.437,8.226 -36.465,0 0,0 -171.608,-140.785 -171.608,-292.797 0,-104.846 84.995,-189.839996 189.841,-189.839996 104.846,0 189.84,84.994996 189.84,189.839996 z"
     style="fill:#4062bb;fill-opacity:1" /><path
     id="path3682"
     d="m 201.425,301.15545 c -52.665,0 -95.51,-42.846 -95.51,-95.51 0,-52.664 42.846,-95.51 95.51,-95.51 52.664,0 95.51,42.846 95.51,95.51 0,52.664 -42.847,95.51 -95.51,95.51 z"
     style="fill:#11113f;fill-opacity:1" /><g
     style="fill:#11113f;fill-opacity:1"
     transform="translate(-54.576)"
     id="g3688"><path
       id="path3684"
       d="M 256.001,0 C 144.935,0 54.576,90.359 54.576,201.424 c 0,36.373 9.386,74.987 27.896,114.767 14.616,31.409 34.94,63.649 60.411,95.826 43.178,54.547 85.749,89.691 87.54,91.16 7.171,5.883 16.375,8.825 25.579,8.825 9.204,0 18.407,-2.942 25.579,-8.825 1.791,-1.47 44.361,-36.613 87.539,-91.16 25.47,-32.176 45.795,-64.416 60.411,-95.826 18.51,-39.78 27.896,-78.392 27.896,-114.767 C 457.424,90.359 367.065,0 256.001,0 Z m 95.246,397.268 c -41.647,52.697 -83.942,87.653 -84.361,87.997 -5.799,4.758 -15.972,4.757 -21.768,0.002 -0.422,-0.346 -42.716,-35.302 -84.363,-87.999 C 122.886,349.35 77.743,276.477 77.743,201.424 77.742,103.132 157.708,23.166 256,23.166 c 98.292,0 178.258,79.966 178.258,178.258 0,75.052 -45.142,147.926 -83.011,195.844 z"
       style="fill:#11113f;fill-opacity:1" /><path
       id="path3686"
       d="m 256.001,94.331 c -59.051,0 -107.093,48.042 -107.093,107.094 0,59.051 48.042,107.093 107.093,107.093 59.051,0 107.093,-48.042 107.093,-107.093 C 363.093,142.373 315.051,94.331 256.001,94.331 Z m 0,191.02 c -46.278,0 -83.927,-37.649 -83.927,-83.927 0,-46.278 37.649,-83.928 83.927,-83.928 46.278,0 83.927,37.65 83.927,83.928 0,46.278 -37.651,83.927 -83.927,83.927 z"
       style="fill:#11113f;fill-opacity:1" /></g><g
     transform="matrix(0.63818567,0,0,0.63818567,112.1721,114.85666)"
     id="g4816"><g
       id="g4744"><g
         id="g4718"><g
           id="g4712"><path
             style="fill:#e4e7e7"
             d="M 140.014,0.005 C 62.691,0.005 0,62.688 0,140.01 c 0,77.322 62.691,140.014 140.014,140.014 77.331,0 140.014,-62.691 140.014,-140.014 0,-77.323 -62.683,-140.005 -140.014,-140.005 z m 0,201.261 c -33.831,0 -61.256,-27.425 -61.256,-61.256 0,-33.822 27.425,-61.256 61.256,-61.256 33.831,0 61.256,27.434 61.256,61.256 0,33.83 -27.426,61.256 -61.256,61.256 z"
             id="path4710" /></g><g
           id="g4716"><path
             style="fill:#e4e7e7"
             d="M 140.014,0.005 C 62.691,0.005 0,62.688 0,140.01 c 0,77.322 62.691,140.014 140.014,140.014 77.331,0 140.014,-62.691 140.014,-140.014 0,-77.323 -62.683,-140.005 -140.014,-140.005 z m 0,201.261 c -33.831,0 -61.256,-27.425 -61.256,-61.256 0,-33.822 27.425,-61.256 61.256,-61.256 33.831,0 61.256,27.434 61.256,61.256 0,33.83 -27.426,61.256 -61.256,61.256 z"
             id="path4714" /></g></g><path
         style="fill:#cdcfcf"
         d="M 140.014,279.988 C 62.656,279.988 0,217.333 0,139.975 0,99.371 17.239,62.793 44.892,37.328 22.402,62.18 8.751,95.083 8.751,131.224 c 0,77.358 62.656,140.014 140.014,140.014 36.229,0 69.307,-13.739 94.159,-36.316 -25.553,27.739 -62.219,45.066 -102.91,45.066 z"
         id="path4720" /><path
         style="fill:#cdcfcf"
         d="m 201.27,139.975 c 0,-33.778 -27.39,-61.256 -61.256,-61.256 -14.701,0 -28.178,5.163 -38.679,13.826 11.201,-13.739 28.265,-22.577 47.43,-22.577 33.866,0 61.256,27.478 61.256,61.256 0,19.164 -8.751,36.229 -22.577,47.43 8.663,-10.502 13.826,-23.978 13.826,-38.679 z"
         id="path4722" /><g
         id="g4732"><path
           style="fill:#e2574c"
           d="m 111.827,85.659 c 8.445,-4.384 18.018,-6.904 28.187,-6.904 10.168,0 19.742,2.52 28.187,6.904 L 182.57,6.63 C 169.137,2.351 154.856,0.006 140.015,0.006 c -14.841,0 -29.123,2.354 -42.547,6.633 z"
           id="path4724" /><path
           style="fill:#e2574c"
           d="m 85.662,168.197 c -4.393,-8.445 -6.904,-18.018 -6.904,-28.187 0,-10.168 2.52,-19.733 6.904,-28.178 L 6.633,97.464 C 2.354,110.887 0,125.169 0,140.01 c 0,14.841 2.354,29.123 6.633,42.547 z"
           id="path4726" /><path
           style="fill:#e2574c"
           d="m 194.365,111.833 c 4.384,8.445 6.904,18.009 6.904,28.178 0,10.169 -2.512,19.742 -6.904,28.187 l 79.029,14.369 c 4.279,-13.433 6.633,-27.714 6.633,-42.555 0,-14.841 -2.354,-29.123 -6.633,-42.547 z"
           id="path4728" /><path
           style="fill:#e2574c"
           d="m 168.2,194.361 c -8.445,4.393 -18.018,6.904 -28.187,6.904 -10.169,0 -19.742,-2.512 -28.187,-6.904 L 97.458,273.39 c 13.424,4.279 27.705,6.633 42.547,6.633 14.841,0 29.123,-2.354 42.547,-6.633 z"
           id="path4730" /></g><path
         style="fill:#cdcfcf"
         d="M 140.014,279.988 C 62.656,279.988 0,217.333 0,139.975 0,99.371 17.239,62.793 44.892,37.328 22.402,62.18 8.751,95.083 8.751,131.224 c 0,77.358 62.656,140.014 140.014,140.014 36.229,0 69.307,-13.739 94.159,-36.316 -25.553,27.739 -62.219,45.066 -102.91,45.066 z"
         id="path4734" /><path
         style="fill:#cb4e44"
         d="m 170.327,73.95 c -6.712,-2.529 -13.958,-3.982 -21.562,-3.982 -14.133,0 -27.11,4.83 -37.445,12.873 l 0.516,2.818 c 2.039,-1.059 4.157,-2.004 6.327,-2.835 1.129,-0.429 2.301,-0.744 3.465,-1.111 1.864,-0.595 3.745,-1.111 5.671,-1.523 1.199,-0.254 2.371,-0.481 3.588,-0.665 2.564,-0.385 5.163,-0.63 7.823,-0.683 0.429,-0.017 0.849,-0.123 1.304,-0.123 2.511,0 4.97,0.193 7.403,0.49 0.14,0.009 0.263,0.044 0.403,0.061 2.266,0.289 4.489,0.709 6.668,1.243 0.201,0.052 0.411,0.105 0.613,0.158 2.223,0.56 4.393,1.243 6.519,2.048 0.026,0.009 0.053,0.018 0.079,0.026 2.231,0.849 4.41,1.794 6.511,2.888 z"
         id="path4736" /><path
         style="fill:#cb4e44"
         d="m 197.165,118.081 c 0.096,0.245 0.184,0.499 0.263,0.735 0.683,1.855 1.278,3.745 1.785,5.671 0.123,0.473 0.245,0.936 0.359,1.409 0.42,1.785 0.753,3.597 1.015,5.443 0.079,0.534 0.184,1.05 0.236,1.584 0.271,2.319 0.446,4.673 0.446,7.053 v 0.009 c 0,0.009 0,0.009 0,0.018 0,3.255 -0.341,6.406 -0.84,9.521 -0.14,0.901 -0.315,1.776 -0.499,2.66 -0.508,2.459 -1.146,4.874 -1.934,7.219 -0.21,0.63 -0.376,1.295 -0.604,1.925 -0.884,2.363 -1.89,4.647 -3.037,6.861 l 2.8,0.516 c 8.068,-10.344 12.864,-23.33 12.864,-37.48 0,-7.578 -1.444,-14.815 -3.964,-21.518 l -11.674,2.118 c 1.043,2.02 1.971,4.112 2.784,6.256 z"
         id="path4738" /><path
         style="fill:#cb4e44"
         d="m 17.843,180.527 c -5.784,-15.358 -9.092,-31.923 -9.092,-49.302 0,-11.271 1.47,-22.166 3.973,-32.658 L 6.633,97.464 c -0.184,0.604 -0.324,1.234 -0.516,1.829 -0.919,3.072 -1.794,6.161 -2.511,9.311 -0.394,1.724 -0.7,3.474 -1.033,5.224 -0.516,2.748 -0.971,5.522 -1.321,8.322 -0.201,1.523 -0.403,3.054 -0.543,4.585 -0.411,4.332 -0.691,8.698 -0.691,13.135 C 0.009,139.913 0,139.949 0,139.993 c 0,4.34 0.263,8.62 0.648,12.864 0.14,1.444 0.333,2.87 0.516,4.297 0.333,2.757 0.753,5.496 1.251,8.2 0.306,1.68 0.621,3.36 0.989,5.023 0.56,2.529 1.234,5.023 1.934,7.499 0.438,1.549 0.805,3.115 1.286,4.638 0,0.018 0.009,0.026 0.009,0.044 z"
         id="path4740" /><path
         style="fill:#cb4e44"
         d="m 181.44,267.255 c -10.501,2.512 -21.405,3.982 -32.676,3.982 -17.362,0 -33.918,-3.308 -49.259,-9.075 l -2.03,11.201 c 0.096,0.035 0.184,0.079 0.28,0.105 1.041,0.333 2.126,0.578 3.177,0.893 3.019,0.875 6.056,1.671 9.145,2.354 1.304,0.289 2.634,0.534 3.955,0.779 3.185,0.595 6.414,1.103 9.678,1.479 0.989,0.122 1.978,0.254 2.975,0.35 4.393,0.411 8.83,0.665 13.328,0.665 4.682,0 9.293,-0.289 13.853,-0.735 1.033,-0.105 2.039,-0.236 3.072,-0.359 3.518,-0.429 7.001,-0.998 10.431,-1.671 1.155,-0.228 2.328,-0.429 3.465,-0.691 3.973,-0.893 7.876,-1.951 11.717,-3.168 z"
         id="path4742" /></g><g
       id="g4746" /><g
       id="g4748" /><g
       id="g4750" /><g
       id="g4752" /><g
       id="g4754" /><g
       id="g4756" /><g
       id="g4758" /><g
       id="g4760" /><g
       id="g4762" /><g
       id="g4764" /><g
       id="g4766" /><g
       id="g4768" /><g
       id="g4770" /><g
       id="g4772" /><g
       id="g4774" /></g></svg>