<?xml version="1.0" encoding="UTF-8" standalone="no"?>
<svg
   xmlns:dc="http://purl.org/dc/elements/1.1/"
   xmlns:cc="http://creativecommons.org/ns#"
   xmlns:rdf="http://www.w3.org/1999/02/22-rdf-syntax-ns#"
   xmlns:svg="http://www.w3.org/2000/svg"
   xmlns="http://www.w3.org/2000/svg"
   height="512.00098"
   width="282.48401"
   xml:space="preserve"
   viewBox="0 0 282.48401 512.00098"
   y="0px"
   x="0px"
   id="Capa_1"
   version="1.1"><metadata
     id="metadata5987"><rdf:RDF><cc:Work
         rdf:about=""><dc:format>image/svg+xml</dc:format><dc:type
           rdf:resource="http://purl.org/dc/dcmitype/StillImage" /><dc:title></dc:title></cc:Work></rdf:RDF></metadata><defs
     id="defs5985" /><g
     transform="translate(-114.758,1.8135946e-6)"
     id="g5950"><g
       id="g5924"><rect
         id="rect5912"
         height="379.586"
         width="282.483"
         style="fill:#ecf0f1"
         y="70.621002"
         x="114.759" /><g
         id="g5918"><path
           id="path5914"
           d="M 397.241,35.31 V 70.62 H 114.759 V 35.31 C 114.756,25.944 118.476,16.962 125.098,10.339 131.72,3.716 140.703,-0.003 150.069,0 h 211.862 c 9.366,-0.003 18.348,3.717 24.971,10.339 6.623,6.622 10.342,15.606 10.339,24.971 z"
           style="fill:#84b5cb" /><path
           id="path5916"
           d="m 397.241,450.207 v 26.483 c 0.002,9.366 -3.717,18.348 -10.34,24.971 -6.622,6.622 -15.605,10.342 -24.971,10.34 H 150.069 c -9.366,0.002 -18.348,-3.717 -24.971,-10.34 -6.622,-6.622 -10.342,-15.605 -10.34,-24.971 v -26.483 z"
           style="fill:#84b5cb" /></g><path
         id="path5920"
         d="m 397.241,361.931 v 88.276 H 256 V 344.276 c 6.017,0.049 11.63,-3.025 14.83,-8.121 10.091,-16.273 19.257,-33.101 27.454,-50.406 29.103,4.889 54.854,21.683 71.062,46.345 5.232,8.809 11.648,16.858 19.068,23.923 z"
         style="fill:#4482c3" /><path
         id="path5922"
         d="M 256,344.276 V 450.207 H 114.759 V 70.621 h 44.138 c 69.738,0 89.953,44.138 95.25,62.588 -38.271,0.938 -68.799,32.249 -68.767,70.532 0,27.454 35.046,100.017 55.791,132.414 3.199,5.096 8.812,8.17 14.829,8.121 z"
         style="fill:#46b29d" /></g><g
       id="g5930"><circle
         id="circle5926"
         r="35.310001"
         cy="203.034"
         cx="256"
         style="fill:none;stroke:#020202;stroke-width:2;stroke-linecap:round;stroke-linejoin:round" /><circle
         id="circle5928"
         r="35.310001"
         cy="203.034"
         cx="256"
         style="fill:none;stroke:#020202;stroke-width:2;stroke-linecap:round;stroke-linejoin:round" /></g><g
       id="g5948"><path
         id="path5932"
         d="m 326.621,203.741 c 0,12.535 -7.239,34.339 -17.125,57.556 -3.444,8.121 -7.239,16.419 -11.211,24.452 -8.198,17.304 -17.364,34.133 -27.455,50.406 -3.234,5.06 -8.825,8.122 -14.83,8.122 -6.005,0 -11.596,-3.062 -14.83,-8.122 -20.746,-32.397 -55.791,-104.96 -55.791,-132.414 -0.032,-38.283 30.495,-69.594 68.767,-70.532 0.615,-0.074 1.235,-0.103 1.854,-0.088 18.731,-0.005 36.697,7.434 49.942,20.679 13.245,13.244 20.684,31.209 20.679,49.941 z"
         style="fill:#cc4b4c" /><g
         id="g5938"><circle
           id="circle5934"
           r="35.310001"
           cy="203.034"
           cx="256"
           style="fill:#ecf0f1" /><circle
           id="circle5936"
           r="26.483"
           cy="450.207"
           cx="256"
           style="fill:#ecf0f1" /></g><g
         id="g5946"><path
           id="path5940"
           d="m 273.655,44.138 h -35.31 c -4.875,0 -8.828,-3.952 -8.828,-8.828 0,-4.876 3.952,-8.828 8.828,-8.828 h 35.31 c 4.875,0 8.828,3.952 8.828,8.828 0,4.876 -3.952,8.828 -8.828,8.828 z"
           style="fill:#547580" /><path
           id="path5942"
           d="m 326.621,44.138 c -0.593,-0.016 -1.183,-0.075 -1.767,-0.177 -0.552,-0.098 -1.086,-0.277 -1.586,-0.53 -0.565,-0.194 -1.101,-0.462 -1.595,-0.797 -0.44,-0.35 -0.879,-0.703 -1.319,-1.056 -0.378,-0.421 -0.732,-0.862 -1.06,-1.323 -0.336,-0.492 -0.603,-1.027 -0.793,-1.591 -0.255,-0.501 -0.435,-1.037 -0.535,-1.59 -0.096,-0.583 -0.153,-1.172 -0.172,-1.763 -0.033,-1.159 0.21,-2.31 0.707,-3.358 0.447,-1.068 1.074,-2.053 1.853,-2.91 l 1.319,-1.06 c 0.494,-0.335 1.03,-0.604 1.595,-0.797 0.499,-0.254 1.034,-0.431 1.587,-0.526 1.131,-0.267 2.309,-0.267 3.44,0 0.586,0.081 1.154,0.259 1.681,0.526 0.562,0.194 1.095,0.462 1.586,0.797 0.44,0.353 0.888,0.707 1.328,1.06 0.779,0.857 1.406,1.841 1.854,2.909 0.453,1.062 0.693,2.203 0.707,3.358 -0.018,0.591 -0.078,1.18 -0.181,1.763 -0.093,0.554 -0.27,1.09 -0.526,1.59 -0.194,0.562 -0.461,1.097 -0.793,1.591 -0.353,0.44 -0.707,0.879 -1.06,1.323 -0.44,0.353 -0.888,0.707 -1.328,1.056 -0.491,0.335 -1.024,0.603 -1.586,0.797 -0.528,0.266 -1.096,0.445 -1.681,0.53 -0.555,0.103 -1.114,0.162 -1.675,0.178 z"
           style="fill:#547580" /><path
           id="path5944"
           d="m 361.931,44.138 c -2.348,0.023 -4.607,-0.9 -6.267,-2.56 -1.66,-1.66 -2.583,-3.919 -2.56,-6.267 0.019,-0.592 0.076,-1.183 0.172,-1.767 0.1,-0.553 0.28,-1.089 0.535,-1.59 0.191,-0.562 0.458,-1.096 0.793,-1.586 0.326,-0.463 0.68,-0.905 1.06,-1.324 2.124,-1.999 5.066,-2.882 7.94,-2.383 0.586,0.081 1.154,0.259 1.681,0.526 0.542,0.177 1.05,0.447 1.5,0.797 0.526,0.353 0.974,0.707 1.414,1.06 1.612,1.693 2.526,3.931 2.561,6.267 -0.014,1.153 -0.254,2.293 -0.707,3.353 -0.427,1.08 -1.056,2.069 -1.854,2.914 -0.433,0.401 -0.907,0.755 -1.414,1.056 -0.45,0.351 -0.958,0.62 -1.5,0.797 -0.528,0.266 -1.096,0.445 -1.681,0.53 -0.553,0.102 -1.112,0.161 -1.673,0.177 z"
           style="fill:#547580" /></g></g></g><g
     transform="translate(-114.758,1.8135946e-6)"
     id="g5952" /><g
     transform="translate(-114.758,1.8135946e-6)"
     id="g5954" /><g
     transform="translate(-114.758,1.8135946e-6)"
     id="g5956" /><g
     transform="translate(-114.758,1.8135946e-6)"
     id="g5958" /><g
     transform="translate(-114.758,1.8135946e-6)"
     id="g5960" /><g
     transform="translate(-114.758,1.8135946e-6)"
     id="g5962" /><g
     transform="translate(-114.758,1.8135946e-6)"
     id="g5964" /><g
     transform="translate(-114.758,1.8135946e-6)"
     id="g5966" /><g
     transform="translate(-114.758,1.8135946e-6)"
     id="g5968" /><g
     transform="translate(-114.758,1.8135946e-6)"
     id="g5970" /><g
     transform="translate(-114.758,1.8135946e-6)"
     id="g5972" /><g
     transform="translate(-114.758,1.8135946e-6)"
     id="g5974" /><g
     transform="translate(-114.758,1.8135946e-6)"
     id="g5976" /><g
     transform="translate(-114.758,1.8135946e-6)"
     id="g5978" /><g
     transform="translate(-114.758,1.8135946e-6)"
     id="g5980" /><g
     transform="matrix(0.13963982,0,0,0.13963982,105.18521,167.81181)"
     id="g5863"><circle
       style="fill:#87dcff"
       cx="256"
       cy="256"
       r="248.5"
       id="circle5787" /><path
       style="fill:#00c3ff"
       d="m 337.497,423.003 c -137.243,0 -248.5,-111.257 -248.5,-248.5 0,-47.74 13.489,-92.316 36.824,-130.178 C 54.837,88.073 7.5,166.497 7.5,256 c 0,137.242 111.257,248.5 248.5,248.5 89.503,0 167.928,-47.337 211.676,-118.322 -37.862,23.335 -82.439,36.825 -130.179,36.825 z"
       id="path5789" /><path
       style="fill:#afd755"
       d="m 49.118,393.657 6.936,-63.012 c 0.554,-4.946 -1.22,-9.868 -4.802,-13.323 L 8.472,277.317 c 3.638,42.791 18.079,82.491 40.646,116.34 z"
       id="path5791" /><path
       style="fill:#bee86e"
       d="m 256,7.5 c -0.613,0 -1.215,0.042 -1.826,0.046 l -13.539,57.403 h -53.101 c -4.02,0 -7.415,2.974 -7.946,6.957 l -4.417,33.124 -24.598,1.288 c -4.135,0.216 -7.425,3.548 -7.589,7.686 l -0.853,21.378 c -0.192,4.813 3.875,8.707 8.676,8.307 l 23.029,-1.919 19.038,-26.553 56.113,-2.004 12.11,18.328 c 3.832,5.8 10.963,8.469 17.663,6.611 l 20.663,-5.734 5.069,-13.448 c 1.939,-5.144 6.378,-8.936 11.762,-10.047 l 10.034,-2.071 c 6.752,-1.393 13.148,3.594 13.441,10.483 0.249,5.864 -4.075,10.924 -9.905,11.593 l -30.401,3.488 -0.335,10.354 24.549,12.525 -8.517,12.525 h -75.151 l -66.133,-26.052 -59.185,54.702 c -4.286,3.961 -6.083,9.939 -4.687,15.606 l 10.932,44.407 c 1.687,6.854 7.658,11.798 14.707,12.177 l 60.569,3.257 c 11.917,0.64 21.561,9.924 22.657,21.808 l 5.108,55.461 20.326,53.161 c 3.448,9.019 12.104,14.976 21.761,14.976 5.801,0 11.394,-2.164 15.684,-6.07 l 54.103,-49.258 c 4.116,-3.746 6.803,-8.805 7.607,-14.312 l 5.771,-39.579 39.106,-43.097 c 4.288,-4.725 1.605,-12.322 -4.697,-13.307 l -7.317,-1.143 1.299,-2.574 54.776,-36.741 -12.692,-17.368 22.575,-2.709 c 6.533,-0.784 12.881,2.504 16.013,8.292 l 15.989,29.566 11.159,20.632 c 1.969,3.642 5.27,6.381 9.214,7.643 l 9.758,3.83 c 0.035,-1.712 0.129,-3.409 0.129,-5.129 C 504.5,118.757 393.243,7.5 256,7.5 Z"
       id="path5793" /><path
       d="M 437.02,74.98 C 388.668,26.629 324.38,0 256,0 187.62,0 123.332,26.629 74.98,74.98 26.629,123.333 0,187.62 0,256 0,324.38 26.629,388.667 74.98,437.02 123.332,485.371 187.62,512 256,512 324.38,512 388.668,485.371 437.02,437.02 485.371,388.667 512,324.38 512,256 512,187.62 485.371,123.333 437.02,74.98 Z M 48.602,329.81 44.007,370.838 C 31.349,347.547 22.661,322.303 18.289,295.946 l 27.757,26.774 c 1.892,1.826 2.848,4.476 2.556,7.09 z m 377.811,96.603 C 380.894,471.932 320.374,497 256,497 191.626,497 131.106,471.932 85.587,426.413 74.807,415.633 65.19,404.003 56.765,391.689 l 6.743,-60.209 c 0.808,-7.209 -1.828,-14.52 -7.049,-19.555 L 15.564,272.477 C 15.198,267.016 15,261.524 15,256 15,191.626 40.068,131.106 85.587,85.587 c 28.429,-28.429 62.71,-48.88 100.126,-60.23 l -4.866,12.895 c -1.463,3.875 0.493,8.203 4.368,9.665 0.872,0.329 1.768,0.485 2.647,0.485 3.03,0 5.885,-1.851 7.018,-4.854 l 8.619,-22.84 c 12.486,-2.76 25.261,-4.526 38.229,-5.279 l -10.58,41.229 -2.878,0.789 h -40.736 c -7.744,0 -14.356,5.789 -15.381,13.466 l -3.593,26.951 -18.379,0.962 c -8.055,0.422 -14.371,6.818 -14.692,14.877 l -0.852,21.379 c -0.177,4.441 1.563,8.75 4.773,11.824 3.21,3.073 7.58,4.626 12.02,4.255 l 1.31,-0.109 -15.212,14.059 c -3.042,2.812 -3.229,7.557 -0.417,10.599 1.479,1.599 3.491,2.409 5.51,2.409 1.82,0 3.646,-0.659 5.089,-1.992 l 27.758,-25.655 61.751,24.327 c 0.876,0.345 1.808,0.522 2.749,0.522 h 75.151 c 2.579,0 4.852,-1.302 6.202,-3.283 v 0 l 0.009,-0.012 c 0.005,-0.007 0.01,-0.015 0.015,-0.022 l 8.493,-12.491 c 1.21,-1.78 1.598,-3.995 1.063,-6.08 -0.534,-2.085 -1.938,-3.84 -3.856,-4.818 l -18.911,-9.649 22.544,-2.587 c 9.692,-1.112 16.959,-9.617 16.543,-19.363 -0.233,-5.485 -2.85,-10.567 -7.179,-13.943 -4.33,-3.377 -9.897,-4.677 -15.271,-3.566 l -10.033,2.07 c -7.947,1.64 -14.401,7.152 -17.266,14.747 l -3.725,9.884 -16.993,4.715 c -3.577,0.99 -7.354,-0.422 -9.399,-3.518 l -12.109,-18.328 c -1.441,-2.181 -3.929,-3.466 -6.525,-3.361 l -56.113,2.004 c -2.322,0.083 -4.474,1.237 -5.828,3.125 l -17.019,23.737 -19.575,1.631 c -0.064,0.007 -0.231,0.02 -0.399,-0.141 -0.169,-0.161 -0.162,-0.33 -0.159,-0.394 L 150.48,114.3 c 0.011,-0.268 0.221,-0.481 0.488,-0.495 l 24.598,-1.288 c 3.606,-0.189 6.565,-2.92 7.043,-6.499 l 4.416,-33.124 c 0.034,-0.256 0.254,-0.449 0.512,-0.449 h 41.746 c 0.67,0 1.337,-0.09 1.983,-0.267 l 41.417,-11.356 c 2.346,-0.643 4.234,-2.384 5.065,-4.67 l 5.344,-14.696 c 1.415,-3.893 -0.593,-8.196 -4.486,-9.611 -3.891,-1.414 -8.195,0.593 -9.611,4.485 l -4.019,11.052 -17.167,4.707 9.514,-37.076 c 63.88,0.341 123.885,25.364 169.093,70.571 44.141,44.141 69.048,102.389 70.516,164.577 l -0.029,-0.009 c -2.109,-0.675 -3.852,-2.12 -4.905,-4.068 l -11.159,-20.632 c -1.97,-3.643 -6.52,-5.002 -10.165,-3.029 -3.643,1.97 -4.999,6.521 -3.028,10.165 l 11.159,20.632 c 2.905,5.373 7.709,9.357 13.608,11.244 l 4.378,1.346 c -2.418,60.694 -27.181,117.405 -70.378,160.603 z M 236.962,151.775 c 3.678,0 6.736,-2.646 7.377,-6.139 0.552,-1.802 3.128,-8.465 6.27,-16.363 l 4.229,6.402 c 5.643,8.54 16.063,12.44 25.926,9.703 l 10.832,-3.006 -0.005,0.158 c -0.094,2.904 1.499,5.602 4.088,6.922 l 16.973,8.66 -1.502,2.21 h -69.757 l -55.854,-22.003 11.284,-15.739 40.876,-1.46 c -8.231,20.508 -8.237,21.657 -8.237,23.154 0,4.143 3.357,7.501 7.5,7.501 z m 73.81,-28.209 0.734,-1.95 c 1.038,-2.754 3.379,-4.753 6.261,-5.348 l 10.033,-2.07 c 0.271,-0.056 0.527,-0.08 0.769,-0.08 1.06,0 1.838,0.465 2.247,0.784 0.502,0.392 1.354,1.27 1.417,2.753 0.082,1.924 -1.353,3.603 -3.267,3.822 z"
       id="path5795" /><path
       d="m 390.084,348.455 c -3.173,-2.665 -7.903,-2.254 -10.567,0.919 l -21.042,25.05 c -2.664,3.171 -2.252,7.902 0.919,10.566 1.406,1.181 3.117,1.757 4.82,1.757 2.139,0 4.264,-0.91 5.747,-2.676 l 21.042,-25.05 c 2.664,-3.171 2.252,-7.902 -0.919,-10.566 z"
       id="path5797" /><path
       d="m 441.344,183.719 -36.561,4.323 -22.872,-20.465 c -3.327,-2.976 -8.576,-2.439 -11.194,1.357 -2.166,3.14 -1.459,7.449 1.383,9.992 l 25.193,22.542 c 1.598,1.429 3.724,2.107 5.86,1.861 l 13.031,-1.503 5.508,7.538 -47.726,32.005 c -1.404,0.941 -3.308,0.538 -4.209,-0.892 l -31.32,-49.695 c -2.25,-3.572 -7.014,-4.595 -10.539,-2.223 -3.406,2.292 -4.174,7.007 -1.987,10.481 l 33.963,53.942 c 1.155,1.834 3.047,3.079 5.188,3.414 l 17.374,2.715 c 0.129,0.02 0.305,0.047 0.407,0.338 0.102,0.291 -0.017,0.423 -0.104,0.519 l -39.107,43.098 c -1.003,1.104 -1.652,2.482 -1.868,3.958 l -5.772,39.58 c -0.551,3.779 -2.409,7.276 -5.233,9.848 l -54.104,49.259 c -2.914,2.654 -6.69,4.116 -10.634,4.116 -6.503,0 -12.433,-4.081 -14.754,-10.155 l -19.958,-52.197 -5.014,-54.434 c -1.426,-15.475 -14.203,-27.774 -29.723,-28.609 l -60.57,-3.256 c -3.777,-0.203 -6.923,-2.808 -7.827,-6.48 l -10.931,-44.407 c -0.742,-3.016 0.213,-6.197 2.494,-8.305 l 5.843,-5.401 c 3.016,-2.787 3.497,-7.542 0.8,-10.64 -2.791,-3.205 -7.655,-3.451 -10.752,-0.588 l -6.072,5.612 c -6.29,5.813 -8.925,14.591 -6.877,22.906 l 10.931,44.407 c 2.494,10.131 11.169,17.313 21.587,17.874 l 60.569,3.256 c 8.141,0.438 14.844,6.89 15.591,15.007 l 5.108,55.461 c 0.063,0.682 0.219,1.351 0.463,1.991 l 20.326,53.16 c 4.527,11.842 16.088,19.798 28.766,19.798 7.688,0 15.051,-2.85 20.732,-8.024 l 54.104,-49.258 c 5.385,-4.902 8.929,-11.57 9.979,-18.775 l 5.442,-37.316 37.57,-41.404 c 3.839,-4.231 5.042,-10.206 3.139,-15.593 -1.004,-2.844 -2.79,-5.265 -5.077,-7.053 l 44.474,-29.831 c 0.894,-0.599 1.697,-1.345 2.274,-2.253 1.729,-2.724 1.527,-6.068 -0.249,-8.499 l -5.132,-7.023 9.853,-1.182 c 3.507,-0.422 6.845,1.312 8.521,4.412 1.357,2.51 3.938,3.934 6.604,3.934 1.498,0 3.024,-0.45 4.373,-1.411 3.128,-2.229 3.946,-6.556 2.079,-9.912 -4.668,-8.395 -13.805,-13.064 -23.363,-11.92 z"
       id="path5799" /><path
       d="m 378.043,143.965 c 1.45,2.146 3.814,3.302 6.222,3.302 1.444,0 2.905,-0.417 4.192,-1.287 3.432,-2.319 4.334,-6.981 2.016,-10.413 l -16.7,-24.716 c -2.32,-3.432 -6.982,-4.334 -10.414,-2.016 -3.432,2.319 -4.334,6.981 -2.016,10.413 z"
       id="path5801" /><g
       id="g5803" /><g
       id="g5805" /><g
       id="g5807" /><g
       id="g5809" /><g
       id="g5811" /><g
       id="g5813" /><g
       id="g5815" /><g
       id="g5817" /><g
       id="g5819" /><g
       id="g5821" /><g
       id="g5823" /><g
       id="g5825" /><g
       id="g5827" /><g
       id="g5829" /><g
       id="g5831" /></g></svg>