<?xml version="1.0" encoding="UTF-8" standalone="no"?>
<!-- Created with Inkscape (http://www.inkscape.org/) -->

<svg
   xmlns:dc="http://purl.org/dc/elements/1.1/"
   xmlns:cc="http://creativecommons.org/ns#"
   xmlns:rdf="http://www.w3.org/1999/02/22-rdf-syntax-ns#"
   xmlns:svg="http://www.w3.org/2000/svg"
   xmlns="http://www.w3.org/2000/svg"
   xmlns:sodipodi="http://sodipodi.sourceforge.net/DTD/sodipodi-0.dtd"
   xmlns:inkscape="http://www.inkscape.org/namespaces/inkscape"
   width="106.58766mm"
   height="135.46719mm"
   viewBox="0 0 106.58766 135.46719"
   version="1.1"
   id="svg4537"
   inkscape:version="0.92.3 (2405546, 2018-03-11)"
   sodipodi:docname="sensor.svg">
  <defs
     id="defs4531" />
  <sodipodi:namedview
     id="base"
     pagecolor="#ffffff"
     bordercolor="#666666"
     borderopacity="1.0"
     inkscape:pageopacity="0.0"
     inkscape:pageshadow="2"
     inkscape:zoom="0.90509668"
     inkscape:cx="8.3495939"
     inkscape:cy="333.62618"
     inkscape:document-units="mm"
     inkscape:current-layer="layer1"
     showgrid="false"
     inkscape:pagecheckerboard="true"
     fit-margin-top="0"
     fit-margin-left="0"
     fit-margin-right="0"
     fit-margin-bottom="0"
     inkscape:window-width="1920"
     inkscape:window-height="1046"
     inkscape:window-x="-11"
     inkscape:window-y="-11"
     inkscape:window-maximized="1"
     inkscape:measure-start="-3357.14,217.857"
     inkscape:measure-end="-3565.71,234.33"
     showguides="true"
     inkscape:guide-bbox="true"
     inkscape:snap-global="true" />
  <metadata
     id="metadata4534">
    <rdf:RDF>
      <cc:Work
         rdf:about="">
        <dc:format>image/svg+xml</dc:format>
        <dc:type
           rdf:resource="http://purl.org/dc/dcmitype/StillImage" />
        <dc:title></dc:title>
      </cc:Work>
    </rdf:RDF>
  </metadata>
  <g
     inkscape:label="Layer 1"
     inkscape:groupmode="layer"
     id="layer1"
     transform="translate(-39.688318,-78.831879)">
    <path
       inkscape:connector-curvature="0"
       id="path10"
       d="m 143.21052,132.12505 c 0,40.21984 -45.404622,77.4692 -45.404622,77.4692 -2.65298,2.17647 -6.99479,2.17647 -9.64803,0 0,0 -45.40462,-37.24936 -45.40462,-77.4692 0,-27.74051 22.48826,-50.228502 50.22876,-50.228502 27.740512,0 50.228512,22.488262 50.228512,50.228502 z"
       style="fill:#ee3840;stroke-width:0.26458332" />
    <path
       inkscape:connector-curvature="0"
       id="path12"
       d="m 92.982008,157.39567 c -13.93428,0 -25.27035,-11.33634 -25.27035,-25.27036 0,-13.93401 11.33634,-25.27035 25.27035,-25.27035 13.934022,0 25.270362,11.33634 25.270362,25.27035 0,13.93402 -11.3366,25.27036 -25.270362,25.27036 z"
       style="fill:#ffe1d6;stroke-width:0.26458332" />
    <g
       transform="matrix(0.26458333,0,0,0.26458333,25.248418,78.831879)"
       id="g18">
      <path
         inkscape:connector-curvature="0"
         id="path14"
         d="M 256.001,0 C 144.935,0 54.576,90.359 54.576,201.424 c 0,36.373 9.386,74.987 27.896,114.767 14.616,31.409 34.94,63.649 60.411,95.826 43.178,54.547 85.749,89.691 87.54,91.16 7.171,5.883 16.375,8.825 25.579,8.825 9.204,0 18.407,-2.942 25.579,-8.825 1.791,-1.47 44.361,-36.613 87.539,-91.16 25.47,-32.176 45.795,-64.416 60.411,-95.826 18.51,-39.78 27.896,-78.392 27.896,-114.767 C 457.424,90.359 367.065,0 256.001,0 Z m 95.246,397.268 c -41.647,52.697 -83.942,87.653 -84.361,87.997 -5.799,4.758 -15.972,4.757 -21.768,0.002 -0.422,-0.346 -42.716,-35.302 -84.363,-87.999 C 122.886,349.35 77.743,276.477 77.743,201.424 77.742,103.132 157.708,23.166 256,23.166 c 98.292,0 178.258,79.966 178.258,178.258 0,75.052 -45.142,147.926 -83.011,195.844 z"
         style="fill:#11113f" />
      <path
         inkscape:connector-curvature="0"
         id="path16"
         d="m 256.001,94.331 c -59.051,0 -107.093,48.042 -107.093,107.094 0,59.051 48.042,107.093 107.093,107.093 59.051,0 107.093,-48.042 107.093,-107.093 C 363.093,142.373 315.051,94.331 256.001,94.331 Z m 0,191.02 c -46.278,0 -83.927,-37.649 -83.927,-83.927 0,-46.278 37.649,-83.928 83.927,-83.928 46.278,0 83.927,37.65 83.927,83.928 0,46.278 -37.651,83.927 -83.927,83.927 z"
         style="fill:#11113f" />
    </g>
    <g
       id="g67"
       transform="matrix(-0.08868943,0,0,0.08868943,-569.13448,137.03277)" />
    <g
       id="g69"
       transform="matrix(-0.08868943,0,0,0.08868943,-569.13448,137.03277)" />
    <g
       id="g71"
       transform="matrix(-0.08868943,0,0,0.08868943,-569.13448,137.03277)" />
    <g
       id="g73"
       transform="matrix(-0.08868943,0,0,0.08868943,-569.13448,137.03277)" />
    <g
       id="g75"
       transform="matrix(-0.08868943,0,0,0.08868943,-569.13448,137.03277)" />
    <g
       id="g77"
       transform="matrix(-0.08868943,0,0,0.08868943,-569.13448,137.03277)" />
    <g
       id="g79"
       transform="matrix(-0.08868943,0,0,0.08868943,-569.13448,137.03277)" />
    <g
       id="g81"
       transform="matrix(-0.08868943,0,0,0.08868943,-569.13448,137.03277)" />
    <g
       id="g83"
       transform="matrix(-0.08868943,0,0,0.08868943,-569.13448,137.03277)" />
    <g
       id="g85"
       transform="matrix(-0.08868943,0,0,0.08868943,-569.13448,137.03277)" />
    <g
       id="g87"
       transform="matrix(-0.08868943,0,0,0.08868943,-569.13448,137.03277)" />
    <g
       id="g89"
       transform="matrix(-0.08868943,0,0,0.08868943,-569.13448,137.03277)" />
    <g
       id="g91"
       transform="matrix(-0.08868943,0,0,0.08868943,-569.13448,137.03277)" />
    <g
       id="g93"
       transform="matrix(-0.08868943,0,0,0.08868943,-569.13448,137.03277)" />
    <g
       id="g95"
       transform="matrix(-0.08868943,0,0,0.08868943,-569.13448,137.03277)" />
    <g
       id="g10515"
       transform="translate(508.62045,-17.266968)">
      <circle
         transform="scale(-1,1)"
         style="fill:#121149;fill-opacity:1;stroke-width:0.08868943"
         cx="415.63831"
         cy="149.10983"
         r="22.527115"
         id="circle57" />
      <g
         transform="translate(-41.365694,5.6588791)"
         id="g10494">
        <path
           style="fill:#1587b5;fill-opacity:1;stroke-width:0.02852524"
           d="m -377.10653,143.86545 v 6.90653 c 0,1.88369 0.37691,3.4106 0.84185,3.4106 h 3.89789 c 0.46495,0 0.84185,-1.52698 0.84185,-3.4106 v -6.90653 z"
           id="path6858-9"
           inkscape:connector-curvature="0" />
        <path
           style="fill:#f2f2f2;fill-opacity:1;stroke-width:0.26677635"
           d="m -377.65226,136.44616 v 0.66642 14.35746 a 3.3797897,3.3797897 0 0 0 6.75929,0 v -14.35773 -0.66615 z m 0.66694,0.66615 h 5.42567 v 2.15323 h -1.86926 a 0.33347046,0.33347046 0 0 0 0,0.66694 h 1.869 v 1.5569 h -0.92512 a 0.33347141,0.33347141 0 0 0 0,0.66694 h 0.92642 v 1.55689 h -1.8703 a 0.33347046,0.33347046 0 0 0 0,0.66694 h 1.869 v 1.55689 h -0.92512 a 0.33347046,0.33347046 0 0 0 0,0.66694 h 0.92642 v 1.55689 h -1.8703 a 0.33347129,0.33347129 0 0 0 0,0.66694 h 1.869 v 2.64223 a 2.7128489,2.7128489 0 0 1 -5.42541,0 z"
           id="path8764"
           inkscape:connector-curvature="0" />
        <g
           id="g9605"
           transform="matrix(0.25207215,0,0,0.25207215,-242.81092,107.67823)"
           style="fill:#d90000;fill-opacity:1">
          <path
             id="path9487"
             d="m -529.64623,136.43787 c 0.14687,0 0.29534,0.0418 0.42691,0.12876 2.31803,1.53381 4.97886,2.34498 7.69523,2.34498 2.71676,0 5.3776,-0.81117 7.69522,-2.34498 0.3573,-0.23619 0.83812,-0.13841 1.07431,0.21848 0.23619,0.3573 0.13841,0.83813 -0.21848,1.07472 -2.57232,1.7024 -5.5293,2.60209 -8.55105,2.60209 -3.02176,0 -5.97874,-0.89969 -8.55106,-2.60209 -0.35689,-0.23619 -0.45467,-0.71742 -0.21848,-1.07472 0.14928,-0.22532 0.39593,-0.34724 0.6474,-0.34724 z m 0,0"
             inkscape:connector-curvature="0"
             style="fill:#d90000;fill-opacity:1;stroke-width:0.10300533" />
          <path
             id="path9489"
             d="m -526.76328,132.53252 c 0.14364,0 0.2893,0.0398 0.41886,0.12353 1.45776,0.93912 3.12476,1.43563 4.82033,1.43563 1.69596,0 3.36296,-0.49651 4.82032,-1.43563 0.36012,-0.23176 0.83974,-0.12836 1.0719,0.23176 0.23176,0.35971 0.12795,0.83973 -0.23176,1.0715 -1.70884,1.10087 -3.66594,1.68268 -5.66046,1.68268 -1.99412,0 -3.95163,-0.58181 -5.66007,-1.68268 -0.35971,-0.23177 -0.46352,-0.71179 -0.23176,-1.0715 0.14847,-0.23015 0.39794,-0.35529 0.65264,-0.35529 z m 0,0"
             inkscape:connector-curvature="0"
             style="fill:#d90000;fill-opacity:1;stroke-width:0.10300533" />
          <path
             id="path9491"
             d="m -523.74193,128.46099 c 0.16256,0 0.32672,0.0507 0.46634,0.15612 0.54762,0.41323 1.13709,0.62246 1.7515,0.62246 0.61481,0 1.20387,-0.20923 1.75149,-0.62246 0.34161,-0.25751 0.82806,-0.18951 1.08598,0.1525 0.25751,0.34161 0.18951,0.82806 -0.1525,1.08558 -0.81076,0.61159 -1.73942,0.93509 -2.68497,0.93509 -0.94556,0 -1.87382,-0.3235 -2.68498,-0.93509 -0.34201,-0.25752 -0.41001,-0.74397 -0.1525,-1.08558 0.1525,-0.20239 0.38466,-0.30862 0.61964,-0.30862 z m 0,0"
             inkscape:connector-curvature="0"
             style="fill:#d90000;fill-opacity:1;stroke-width:0.10300533" />
        </g>
        <g
           id="g10475"
           transform="matrix(-0.03945169,0,0,-0.03945169,-396.55174,139.91323)">
          <path
             id="path9844"
             d="M -544.92647,152.77036 H -584.512 c -1.46623,0 -2.6541,1.18787 -2.6541,2.65548 v 22.38072 c 0,1.46761 1.18787,2.65548 2.6541,2.65548 h 39.58553 c 1.46623,0 2.6541,-1.18787 2.6541,-2.65548 v -22.38072 c 0,-1.46761 -1.18787,-2.65548 -2.6541,-2.65548 z m 0,0"
             style="fill:#c4c4c4;stroke-width:0.35277778"
             inkscape:connector-curvature="0" />
          <path
             id="path9846"
             d="M -544.92647,152.77036 H -584.512 c -1.46623,0 -2.6541,1.18787 -2.6541,2.65548 v 9.55807 h 44.89373 v -9.55807 c 0,-1.46761 -1.18787,-2.65548 -2.6541,-2.65548 z m 0,0"
             style="fill:#afafaf;stroke-width:0.35277778"
             inkscape:connector-curvature="0" />
          <path
             id="path9848"
             d="m -501.6354,103.62675 h -126.16767 c -15.01373,0 -27.22728,12.21356 -27.22728,27.22729 0,15.01235 12.21355,27.2259 27.22728,27.2259 h 126.16767 c 15.01373,0 27.22728,-12.21355 27.22728,-27.2259 0,-15.01373 -12.21355,-27.22729 -27.22728,-27.22729 z m 0,0"
             style="fill:#3e5359;stroke-width:0.35277778"
             inkscape:connector-curvature="0" />
          <path
             id="path9850"
             d="m -501.6354,146.14062 h -126.16767 c -12.96183,0 -23.83042,-9.10746 -26.55893,-21.25762 -0.43271,1.92374 -0.66835,3.91914 -0.66835,5.97104 0,15.01235 12.21355,27.2259 27.22728,27.2259 h 126.16767 c 15.01373,0 27.22728,-12.21355 27.22728,-27.2259 0,-2.0519 -0.23565,-4.0473 -0.66697,-5.96966 -2.7299,12.14878 -13.59848,21.25624 -26.56031,21.25624 z m 0,0"
             style="fill:#334549;stroke-width:0.35277778"
             inkscape:connector-curvature="0" />
          <path
             id="path9852"
             d="m -609.42555,136.07818 c -2.88148,0 -5.22552,-2.34404 -5.22552,-5.22414 0,-2.88148 2.34404,-5.22552 5.22552,-5.22552 2.8801,0 5.22414,2.34404 5.22414,5.22552 0,2.8801 -2.34404,5.22414 -5.22414,5.22414 z m 0,0"
             style="fill:#dddddd;stroke-width:0.35277778"
             inkscape:connector-curvature="0" />
          <path
             id="path9854"
             d="m -581.11789,121.13749 c -5.35782,0 -9.71655,4.35874 -9.71655,9.71655 0,5.35643 4.35873,9.71517 9.71655,9.71517 5.35643,0 9.71517,-4.35874 9.71517,-9.71517 0,-5.35781 -4.35874,-9.71655 -9.71517,-9.71655 z m 0,0"
             style="fill:#c90e0e;stroke-width:0.35277778"
             inkscape:connector-curvature="0" />
          <path
             id="path9856"
             d="m -552.81023,121.13749 c -5.35781,0 -9.71655,4.35874 -9.71655,9.71655 0,5.35643 4.35874,9.71517 9.71655,9.71517 5.35644,0 9.71517,-4.35874 9.71517,-9.71517 0,-5.35781 -4.35873,-9.71655 -9.71517,-9.71655 z m 0,0"
             style="fill:#ffdb56;stroke-width:0.35277778"
             inkscape:connector-curvature="0" />
          <path
             id="path9858"
             d="m -524.50257,121.13749 c -5.35781,0 -9.71654,4.35874 -9.71654,9.71655 0,5.35643 4.35873,9.71517 9.71654,9.71517 5.35644,0 9.71517,-4.35874 9.71517,-9.71517 0,-5.35781 -4.35873,-9.71655 -9.71517,-9.71655 z m 0,0"
             style="fill:#68bd45;stroke-width:0.35277778"
             inkscape:connector-curvature="0" />
          <path
             id="path9860"
             d="m -517.38775,175.15246 h -94.66297 c -6.42854,0 -11.6582,5.22965 -11.6582,11.65682 0,6.42855 5.22966,11.65821 11.6582,11.65821 h 94.66297 c 6.42716,0 11.65682,-5.22966 11.65682,-11.65821 0,-6.42717 -5.22966,-11.65682 -11.65682,-11.65682 z m 0,0"
             style="fill:#dddddd;stroke-width:0.35277778"
             inkscape:connector-curvature="0" />
          <path
             id="path9862"
             d="m -517.38775,186.08168 h -94.66297 c -4.15341,0 -7.80521,-2.18557 -9.86951,-5.4653 -1.13137,1.79696 -1.78869,3.91914 -1.78869,6.1929 0,6.42855 5.22966,11.65821 11.6582,11.65821 h 94.66297 c 6.42716,0 11.65682,-5.22966 11.65682,-11.65821 0,-2.27376 -0.65595,-4.39594 -1.78732,-6.1929 -2.06568,3.27973 -5.7161,5.4653 -9.8695,5.4653 z m 0,0"
             style="fill:#c4c4c4;stroke-width:0.35277778"
             inkscape:connector-curvature="0" />
        </g>
      </g>
    </g>
  </g>
  <g
     inkscape:groupmode="layer"
     id="layer2"
     inkscape:label="Layer 2" />
</svg>
