<?xml version="1.0" encoding="UTF-8" standalone="no"?>
<svg
   xmlns:dc="http://purl.org/dc/elements/1.1/"
   xmlns:cc="http://creativecommons.org/ns#"
   xmlns:rdf="http://www.w3.org/1999/02/22-rdf-syntax-ns#"
   xmlns:svg="http://www.w3.org/2000/svg"
   xmlns="http://www.w3.org/2000/svg"
   height="512.00201"
   width="402.85101"
   xml:space="preserve"
   viewBox="0 0 402.851 512.002"
   y="0px"
   x="0px"
   id="Layer_1"
   version="1.1"><metadata
     id="metadata3725"><rdf:RDF><cc:Work
         rdf:about=""><dc:format>image/svg+xml</dc:format><dc:type
           rdf:resource="http://purl.org/dc/dcmitype/StillImage" /><dc:title></dc:title></cc:Work></rdf:RDF></metadata><defs
     id="defs3723" /><g
     transform="translate(-58.797454,-1.2061296)"
     id="g3690" /><g
     transform="translate(-58.797454,-1.2061296)"
     id="g3692" /><g
     transform="translate(-58.797454,-1.2061296)"
     id="g3694" /><g
     transform="translate(-58.797454,-1.2061296)"
     id="g3696" /><g
     transform="translate(-58.797454,-1.2061296)"
     id="g3698" /><g
     transform="translate(-58.797454,-1.2061296)"
     id="g3700" /><g
     transform="translate(-58.797454,-1.2061296)"
     id="g3702" /><g
     transform="translate(-58.797454,-1.2061296)"
     id="g3704" /><g
     transform="translate(-58.797454,-1.2061296)"
     id="g3706" /><g
     transform="translate(-58.797454,-1.2061296)"
     id="g3708" /><g
     transform="translate(-58.797454,-1.2061296)"
     id="g3710" /><g
     transform="translate(-58.797454,-1.2061296)"
     id="g3712" /><g
     transform="translate(-58.797454,-1.2061296)"
     id="g3714" /><g
     transform="translate(-58.797454,-1.2061296)"
     id="g3716" /><g
     transform="translate(-58.797454,-1.2061296)"
     id="g3718" /><g
     transform="translate(-54.576,4.2214536)"
     id="g4671"><path
       style="fill:#ee3840"
       d="m 445.841,201.423 c 0,152.012 -171.608,292.797 -171.608,292.797 -10.027,8.226 -26.437,8.226 -36.465,0 0,0 -171.608,-140.785 -171.608,-292.797 0,-104.846 84.995,-189.84 189.841,-189.84 104.846,0 189.84,84.995 189.84,189.84 z"
       id="path3680" /><path
       style="fill:#ffe1d6"
       d="m 256.001,296.934 c -52.665,0 -95.51,-42.846 -95.51,-95.51 0,-52.664 42.846,-95.51 95.51,-95.51 52.664,0 95.51,42.846 95.51,95.51 0,52.664 -42.847,95.51 -95.51,95.51 z"
       id="path3682" /><g
       id="g3688"
       transform="translate(0,-4.2214536)"
       style="fill:#11113f;fill-opacity:1"><path
         style="fill:#11113f;fill-opacity:1"
         d="M 256.001,0 C 144.935,0 54.576,90.359 54.576,201.424 c 0,36.373 9.386,74.987 27.896,114.767 14.616,31.409 34.94,63.649 60.411,95.826 43.178,54.547 85.749,89.691 87.54,91.16 7.171,5.883 16.375,8.825 25.579,8.825 9.204,0 18.407,-2.942 25.579,-8.825 1.791,-1.47 44.361,-36.613 87.539,-91.16 25.47,-32.176 45.795,-64.416 60.411,-95.826 18.51,-39.78 27.896,-78.392 27.896,-114.767 C 457.424,90.359 367.065,0 256.001,0 Z m 95.246,397.268 c -41.647,52.697 -83.942,87.653 -84.361,87.997 -5.799,4.758 -15.972,4.757 -21.768,0.002 -0.422,-0.346 -42.716,-35.302 -84.363,-87.999 C 122.886,349.35 77.743,276.477 77.743,201.424 77.742,103.132 157.708,23.166 256,23.166 c 98.292,0 178.258,79.966 178.258,178.258 0,75.052 -45.142,147.926 -83.011,195.844 z"
         id="path3684" /><path
         style="fill:#11113f;fill-opacity:1"
         d="m 256.001,94.331 c -59.051,0 -107.093,48.042 -107.093,107.094 0,59.051 48.042,107.093 107.093,107.093 59.051,0 107.093,-48.042 107.093,-107.093 C 363.093,142.373 315.051,94.331 256.001,94.331 Z m 0,191.02 c -46.278,0 -83.927,-37.649 -83.927,-83.927 0,-46.278 37.649,-83.928 83.927,-83.928 46.278,0 83.927,37.65 83.927,83.928 0,46.278 -37.651,83.927 -83.927,83.927 z"
         id="path3686" /></g><g
       id="g3827"
       transform="matrix(0.35453221,0,0,0.35453221,164.49173,105.66035)"><circle
         id="circle3727"
         r="256"
         cy="256"
         cx="256"
         style="fill:#273b7a" /><path
         id="path3729"
         d="m 92.501,176.109 83.111,82.98 -48.209,63.007 41.012,39.986 -26.846,30.717 119.239,119.141 C 398.203,509.408 509.133,398.645 511.931,261.315 L 402.339,150.404 256,114.429 Z"
         style="fill:#121149" /><circle
         id="circle3731"
         r="23.087"
         cy="211.575"
         cx="250.259"
         style="fill:#eaa22f" /><path
         id="path3733"
         d="m 271.453,387.781 v -56.537 c 0,-3.903 3.163,-7.066 7.066,-7.066 v 0 c 3.903,0 7.066,-3.163 7.066,-7.066 v -59.237 c 0,-2.677 -1.512,-5.123 -3.906,-6.322 L 258.81,240.118 c -0.981,-0.491 -2.064,-0.746 -3.16,-0.746 h -10.797 c -1.096,0 -2.179,0.255 -3.16,0.746 l -22.869,11.435 c -2.395,1.196 -3.906,3.644 -3.906,6.322 v 59.237 c 0,3.903 3.163,7.066 7.066,7.066 v 0 c 3.903,0 7.066,3.163 7.066,7.066 v 56.537 c 0,3.903 3.163,7.066 7.066,7.066 h 28.269 c 3.905,0.002 7.068,-3.164 7.068,-7.066 z"
         style="fill:#ffc61b" /><circle
         id="circle3735"
         r="23.087"
         cy="211.575"
         cx="160.685"
         style="fill:#eaa22f" /><path
         id="path3737"
         d="m 181.882,387.781 v -56.537 c 0,-3.903 3.163,-7.066 7.066,-7.066 v 0 c 3.903,0 7.066,-3.163 7.066,-7.066 v -59.237 c 0,-2.677 -1.512,-5.123 -3.906,-6.322 l -22.869,-11.435 c -0.981,-0.491 -2.064,-0.746 -3.16,-0.746 h -10.797 c -1.096,0 -2.179,0.255 -3.16,0.746 l -22.869,11.435 c -2.395,1.196 -3.906,3.644 -3.906,6.322 v 59.237 c 0,3.903 3.163,7.066 7.066,7.066 v 0 c 3.903,0 7.066,3.163 7.066,7.066 v 56.537 c 0,3.903 3.163,7.066 7.066,7.066 h 28.269 c 3.903,0.002 7.068,-3.164 7.068,-7.066 z"
         style="fill:#ffc61b" /><circle
         id="circle3739"
         r="23.087"
         cy="211.575"
         cx="339.81601"
         style="fill:#eaa22f" /><path
         id="path3741"
         d="m 361.026,387.781 v -56.537 c 0,-3.903 3.163,-7.066 7.066,-7.066 v 0 c 3.903,0 7.066,-3.163 7.066,-7.066 v -59.237 c 0,-2.677 -1.512,-5.123 -3.906,-6.322 l -22.869,-11.435 c -0.981,-0.491 -2.064,-0.746 -3.16,-0.746 h -10.797 c -1.096,0 -2.179,0.255 -3.16,0.746 l -22.869,11.435 c -2.395,1.196 -3.906,3.644 -3.906,6.322 v 59.237 c 0,3.903 3.163,7.066 7.066,7.066 v 0 c 3.903,0 7.066,3.163 7.066,7.066 v 56.537 c 0,3.903 3.163,7.066 7.066,7.066 h 28.269 c 3.902,0.002 7.068,-3.164 7.068,-7.066 z"
         style="fill:#ffc61b" /><path
         id="path3743"
         d="m 250.252,188.488 c -0.14,0 -0.274,0.019 -0.414,0.021 v 46.13 c 0.14,0.002 0.274,0.021 0.414,0.021 12.75,0 23.087,-10.337 23.087,-23.087 -0.002,-12.75 -10.336,-23.085 -23.087,-23.085 z"
         style="fill:#e09112" /><path
         id="path3745"
         d="m 281.681,251.552 -22.869,-11.435 c -0.981,-0.49 -2.064,-0.746 -3.16,-0.746 h -5.811 v 155.476 h 14.548 c 3.903,0 7.066,-3.163 7.066,-7.066 v -56.537 c 0,-3.903 3.163,-7.066 7.066,-7.066 3.903,0 7.066,-3.163 7.066,-7.068 v -59.237 c 0,-2.676 -1.511,-5.124 -3.906,-6.321 z"
         style="fill:#eaa22f" /><path
         id="path3747"
         d="m 160.68,188.488 c -0.164,0 -0.322,0.021 -0.484,0.024 v 46.123 c 0.162,0.003 0.321,0.024 0.484,0.024 12.75,0 23.087,-10.337 23.087,-23.087 0,-12.749 -10.337,-23.084 -23.087,-23.084 z"
         style="fill:#e09112" /><path
         id="path3749"
         d="M 192.109,251.552 169.24,240.117 c -0.981,-0.49 -2.064,-0.746 -3.16,-0.746 h -5.884 v 155.476 h 14.619 c 3.903,0 7.066,-3.163 7.066,-7.066 v -56.537 c 0,-3.903 3.163,-7.066 7.068,-7.066 3.903,0 7.066,-3.163 7.066,-7.068 v -59.237 c 0.002,-2.676 -1.512,-5.124 -3.906,-6.321 z"
         style="fill:#eaa22f" /><path
         id="path3751"
         d="m 339.823,188.488 c -0.116,0 -0.228,0.016 -0.341,0.017 v 46.137 c 0.116,0.002 0.226,0.017 0.341,0.017 12.75,0 23.087,-10.337 23.087,-23.087 0,-12.749 -10.337,-23.084 -23.087,-23.084 z"
         style="fill:#e09112" /><path
         id="path3753"
         d="m 371.253,251.552 -22.869,-11.435 c -0.981,-0.49 -2.064,-0.746 -3.16,-0.746 h -5.741 v 155.476 h 14.476 c 3.903,0 7.068,-3.163 7.068,-7.066 v -56.537 c 0,-3.903 3.163,-7.066 7.066,-7.066 v 0 c 3.903,0 7.066,-3.163 7.066,-7.068 v -59.237 c 0.001,-2.676 -1.513,-5.124 -3.906,-6.321 z"
         style="fill:#eaa22f" /><path
         id="path3755"
         d="m 241.683,88.454 -144.379,57.75 c -5.399,2.16 -8.938,7.389 -8.938,13.203 v 6.701 c 0,10.061 10.161,16.941 19.503,13.203 l 133.816,-53.526 c 3.391,-1.357 7.173,-1.357 10.562,0 l 133.816,53.526 c 9.342,3.736 19.503,-3.143 19.503,-13.203 v -6.699 c 0,-5.815 -3.541,-11.043 -8.938,-13.203 L 252.249,88.455 c -3.393,-1.356 -7.175,-1.356 -10.566,-0.001 z"
         style="fill:#ff7f4f" /><path
         id="path3757"
         d="M 396.626,146.206 252.247,88.455 c -1.695,-0.677 -3.487,-1.017 -5.28,-1.017 v 37.333 c 1.793,0 3.586,0.34 5.28,1.017 l 133.816,53.526 c 9.342,3.736 19.503,-3.143 19.503,-13.203 v -6.701 c -0.002,-5.815 -3.543,-11.045 -8.94,-13.204 z"
         style="fill:#d35933" /><g
         id="g3759" /><g
         id="g3761" /><g
         id="g3763" /><g
         id="g3765" /><g
         id="g3767" /><g
         id="g3769" /><g
         id="g3771" /><g
         id="g3773" /><g
         id="g3775" /><g
         id="g3777" /><g
         id="g3779" /><g
         id="g3781" /><g
         id="g3783" /><g
         id="g3785" /><g
         id="g3787" /></g></g></svg>